<svg xmlns="http://www.w3.org/2000/svg" width="1280" height="720">
<rect width="100%" height="100%" fill="white"/>
<text x="640.0" y="34" text-anchor="middle" font-size="20" font-family="Arial">Trace Action Length Histogram</text>
<line x1="90" y1="480.00" x2="1240" y2="480.00" stroke="#d0d7de"/>
<text x="78" y="484.00" font-size="11" text-anchor="end">0.0</text>
<line x1="90" y1="398.00" x2="1240" y2="398.00" stroke="#d0d7de"/>
<text x="78" y="402.00" font-size="11" text-anchor="end">1.6</text>
<line x1="90" y1="316.00" x2="1240" y2="316.00" stroke="#d0d7de"/>
<text x="78" y="320.00" font-size="11" text-anchor="end">3.2</text>
<line x1="90" y1="234.00" x2="1240" y2="234.00" stroke="#d0d7de"/>
<text x="78" y="238.00" font-size="11" text-anchor="end">4.8</text>
<line x1="90" y1="152.00" x2="1240" y2="152.00" stroke="#d0d7de"/>
<text x="78" y="156.00" font-size="11" text-anchor="end">6.4</text>
<line x1="90" y1="70.00" x2="1240" y2="70.00" stroke="#d0d7de"/>
<text x="78" y="74.00" font-size="11" text-anchor="end">8.0</text>
<line x1="90" y1="480" x2="1240" y2="480" stroke="#333"/>
<line x1="90" y1="70" x2="90" y2="480" stroke="#333"/>
<rect x="90.00" y="326.25" width="96.55" height="153.75" fill="#f39c12" />
<rect x="194.55" y="70.00" width="96.55" height="410.00" fill="#f39c12" />
<rect x="299.09" y="377.50" width="96.55" height="102.50" fill="#f39c12" />
<rect x="403.64" y="428.75" width="96.55" height="51.25" fill="#f39c12" />
<rect x="508.18" y="377.50" width="96.55" height="102.50" fill="#f39c12" />
<rect x="612.73" y="428.75" width="96.55" height="51.25" fill="#f39c12" />
<rect x="717.27" y="275.00" width="96.55" height="205.00" fill="#f39c12" />
<rect x="821.82" y="377.50" width="96.55" height="102.50" fill="#f39c12" />
<rect x="926.36" y="377.50" width="96.55" height="102.50" fill="#f39c12" />
<rect x="1030.91" y="377.50" width="96.55" height="102.50" fill="#f39c12" />
<rect x="1135.45" y="428.75" width="96.55" height="51.25" fill="#f39c12" />
<text x="138.27" y="500" font-size="11" text-anchor="end" transform="rotate(-45 138.27,500)">8-8</text>
<text x="242.82" y="500" font-size="11" text-anchor="end" transform="rotate(-45 242.82,500)">9-9</text>
<text x="347.36" y="500" font-size="11" text-anchor="end" transform="rotate(-45 347.36,500)">10-10</text>
<text x="451.91" y="500" font-size="11" text-anchor="end" transform="rotate(-45 451.91,500)">11-11</text>
<text x="556.45" y="500" font-size="11" text-anchor="end" transform="rotate(-45 556.45,500)">13-13</text>
<text x="661.00" y="500" font-size="11" text-anchor="end" transform="rotate(-45 661.00,500)">14-14</text>
<text x="765.55" y="500" font-size="11" text-anchor="end" transform="rotate(-45 765.55,500)">15-15</text>
<text x="870.09" y="500" font-size="11" text-anchor="end" transform="rotate(-45 870.09,500)">16-16</text>
<text x="974.64" y="500" font-size="11" text-anchor="end" transform="rotate(-45 974.64,500)">17-17</text>
<text x="1079.18" y="500" font-size="11" text-anchor="end" transform="rotate(-45 1079.18,500)">18-18</text>
<text x="1183.73" y="500" font-size="11" text-anchor="end" transform="rotate(-45 1183.73,500)">19-19</text>
</svg>