<svg xmlns="http://www.w3.org/2000/svg" width="980" height="640" viewBox="0 0 980 640">
<rect x="0" y="0" width="980" height="640" fill="#f8fafc"/>
<text x="30" y="42" font-family="Helvetica,Arial,sans-serif" font-size="26" font-weight="700" fill="#0f172a">Average Cost Per Browser-Use Task (USD)</text>

<text x="30" y="68" font-family="Helvetica,Arial,sans-serif" font-size="15" fill="#334155">Each bar is the average dollar cost to complete one task run. Black line shows the full observed range.</text>
<line x1="140" y1="520.00" x2="900" y2="520.00" stroke="#e2e8f0" stroke-width="1"/>
<text x="130" y="524.00" text-anchor="end" font-family="Helvetica,Arial,sans-serif" font-size="12" fill="#334155">$0.00</text>
<line x1="140" y1="450.00" x2="900" y2="450.00" stroke="#e2e8f0" stroke-width="1"/>
<text x="130" y="454.00" text-anchor="end" font-family="Helvetica,Arial,sans-serif" font-size="12" fill="#334155">$0.19</text>
<line x1="140" y1="380.00" x2="900" y2="380.00" stroke="#e2e8f0" stroke-width="1"/>
<text x="130" y="384.00" text-anchor="end" font-family="Helvetica,Arial,sans-serif" font-size="12" fill="#334155">$0.39</text>
<line x1="140" y1="310.00" x2="900" y2="310.00" stroke="#e2e8f0" stroke-width="1"/>
<text x="130" y="314.00" text-anchor="end" font-family="Helvetica,Arial,sans-serif" font-size="12" fill="#334155">$0.58</text>
<line x1="140" y1="240.00" x2="900" y2="240.00" stroke="#e2e8f0" stroke-width="1"/>
<text x="130" y="244.00" text-anchor="end" font-family="Helvetica,Arial,sans-serif" font-size="12" fill="#334155">$0.77</text>
<line x1="140" y1="170.00" x2="900" y2="170.00" stroke="#e2e8f0" stroke-width="1"/>
<text x="130" y="174.00" text-anchor="end" font-family="Helvetica,Arial,sans-serif" font-size="12" fill="#334155">$0.97</text>
<line x1="140" y1="100.00" x2="900" y2="100.00" stroke="#e2e8f0" stroke-width="1"/>
<text x="130" y="104.00" text-anchor="end" font-family="Helvetica,Arial,sans-serif" font-size="12" fill="#334155">$1.16</text>
<line x1="280.0" y1="334.43" x2="280.0" y2="489.52" stroke="#0f172a" stroke-width="3"/>
<line x1="235" y1="334.43" x2="325" y2="334.43" stroke="#0f172a" stroke-width="3"/>
<line x1="235" y1="489.52" x2="325" y2="489.52" stroke="#0f172a" stroke-width="3"/>
<rect x="210" y="444.36" width="140" height="75.64" fill="#2563eb" rx="6"/>
<text x="280.0" y="434.36" text-anchor="middle" font-family="Helvetica,Arial,sans-serif" font-size="14" font-weight="700" fill="#0f172a">$0.21 avg</text>
<text x="280.0" y="548" text-anchor="middle" font-family="Helvetica,Arial,sans-serif" font-size="13" fill="#0f172a">Yelp Search Task</text>
<text x="280.0" y="566" text-anchor="middle" font-family="Helvetica,Arial,sans-serif" font-size="12" fill="#475569">40 runs</text>
<line x1="510.0" y1="145.00" x2="510.0" y2="378.74" stroke="#0f172a" stroke-width="3"/>
<line x1="465" y1="145.00" x2="555" y2="145.00" stroke="#0f172a" stroke-width="3"/>
<line x1="465" y1="378.74" x2="555" y2="378.74" stroke="#0f172a" stroke-width="3"/>
<rect x="440" y="299.05" width="140" height="220.95" fill="#0891b2" rx="6"/>
<text x="510.0" y="289.05" text-anchor="middle" font-family="Helvetica,Arial,sans-serif" font-size="14" font-weight="700" fill="#0f172a">$0.61 avg</text>
<text x="510.0" y="548" text-anchor="middle" font-family="Helvetica,Arial,sans-serif" font-size="13" fill="#0f172a">Google Flights Task</text>
<text x="510.0" y="566" text-anchor="middle" font-family="Helvetica,Arial,sans-serif" font-size="12" fill="#475569">40 runs</text>
<line x1="740.0" y1="145.00" x2="740.0" y2="489.52" stroke="#0f172a" stroke-width="3"/>
<line x1="695" y1="145.00" x2="785" y2="145.00" stroke="#0f172a" stroke-width="3"/>
<line x1="695" y1="489.52" x2="785" y2="489.52" stroke="#0f172a" stroke-width="3"/>
<rect x="670" y="371.71" width="140" height="148.29" fill="#16a34a" rx="6"/>
<text x="740.0" y="361.71" text-anchor="middle" font-family="Helvetica,Arial,sans-serif" font-size="14" font-weight="700" fill="#0f172a">$0.41 avg</text>
<text x="740.0" y="548" text-anchor="middle" font-family="Helvetica,Arial,sans-serif" font-size="13" fill="#0f172a">All Tasks Combined</text>
<text x="740.0" y="566" text-anchor="middle" font-family="Helvetica,Arial,sans-serif" font-size="12" fill="#475569">80 runs</text>
<text x="30" y="585" font-family="Helvetica,Arial,sans-serif" font-size="14" fill="#334155">Interpretation: most runs cost well under $1, but harder tasks can approach $1 per run.</text>
</svg>
