<svg xmlns="http://www.w3.org/2000/svg" width="980" height="640" viewBox="0 0 980 640">
<rect x="0" y="0" width="980" height="640" fill="#f8fafc"/>
<text x="30" y="42" font-family="Helvetica,Arial,sans-serif" font-size="26" font-weight="700" fill="#0f172a">How Total Spend Scales With Number of Tasks</text>

<text x="30" y="70" font-family="Helvetica,Arial,sans-serif" font-size="15" fill="#334155">If cost per task stays similar, total spend grows almost linearly as you run more tasks.</text>
<line x1="120" y1="510.00" x2="900" y2="510.00" stroke="#e2e8f0"/>
<text x="110" y="514.00" text-anchor="end" font-family="Helvetica,Arial,sans-serif" font-size="12" fill="#475569">$0.00</text>
<line x1="120" y1="430.00" x2="900" y2="430.00" stroke="#e2e8f0"/>
<text x="110" y="434.00" text-anchor="end" font-family="Helvetica,Arial,sans-serif" font-size="12" fill="#475569">$158.54</text>
<line x1="120" y1="350.00" x2="900" y2="350.00" stroke="#e2e8f0"/>
<text x="110" y="354.00" text-anchor="end" font-family="Helvetica,Arial,sans-serif" font-size="12" fill="#475569">$317.09</text>
<line x1="120" y1="270.00" x2="900" y2="270.00" stroke="#e2e8f0"/>
<text x="110" y="274.00" text-anchor="end" font-family="Helvetica,Arial,sans-serif" font-size="12" fill="#475569">$475.63</text>
<line x1="120" y1="190.00" x2="900" y2="190.00" stroke="#e2e8f0"/>
<text x="110" y="194.00" text-anchor="end" font-family="Helvetica,Arial,sans-serif" font-size="12" fill="#475569">$634.18</text>
<line x1="120" y1="110.00" x2="900" y2="110.00" stroke="#e2e8f0"/>
<text x="110" y="114.00" text-anchor="end" font-family="Helvetica,Arial,sans-serif" font-size="12" fill="#475569">$792.72</text>
<line x1="120.00" y1="510" x2="120.00" y2="516" stroke="#334155"/>
<text x="120.00" y="534" text-anchor="middle" font-family="Helvetica,Arial,sans-serif" font-size="12" fill="#334155">10</text>
<line x1="131.82" y1="510" x2="131.82" y2="516" stroke="#334155"/>
<text x="131.82" y="534" text-anchor="middle" font-family="Helvetica,Arial,sans-serif" font-size="12" fill="#334155">25</text>
<line x1="151.52" y1="510" x2="151.52" y2="516" stroke="#334155"/>
<text x="151.52" y="534" text-anchor="middle" font-family="Helvetica,Arial,sans-serif" font-size="12" fill="#334155">50</text>
<line x1="190.91" y1="510" x2="190.91" y2="516" stroke="#334155"/>
<text x="190.91" y="534" text-anchor="middle" font-family="Helvetica,Arial,sans-serif" font-size="12" fill="#334155">100</text>
<line x1="309.09" y1="510" x2="309.09" y2="516" stroke="#334155"/>
<text x="309.09" y="534" text-anchor="middle" font-family="Helvetica,Arial,sans-serif" font-size="12" fill="#334155">250</text>
<line x1="506.06" y1="510" x2="506.06" y2="516" stroke="#334155"/>
<text x="506.06" y="534" text-anchor="middle" font-family="Helvetica,Arial,sans-serif" font-size="12" fill="#334155">500</text>
<line x1="900.00" y1="510" x2="900.00" y2="516" stroke="#334155"/>
<text x="900.00" y="534" text-anchor="middle" font-family="Helvetica,Arial,sans-serif" font-size="12" fill="#334155">1000</text>
<polyline points="120.00,509.07 131.82,507.66 151.52,505.33 190.91,500.65 309.09,486.63 506.06,463.26 900.00,416.53" fill="none" stroke="#16a34a" stroke-width="3"/>
<circle cx="120.00" cy="509.07" r="4" fill="#16a34a"/>
<circle cx="131.82" cy="507.66" r="4" fill="#16a34a"/>
<circle cx="151.52" cy="505.33" r="4" fill="#16a34a"/>
<circle cx="190.91" cy="500.65" r="4" fill="#16a34a"/>
<circle cx="309.09" cy="486.63" r="4" fill="#16a34a"/>
<circle cx="506.06" cy="463.26" r="4" fill="#16a34a"/>
<circle cx="900.00" cy="416.53" r="4" fill="#16a34a"/>
<text x="910.00" y="420.53" font-family="Helvetica,Arial,sans-serif" font-size="12" fill="#16a34a">Lower-cost days (25th percentile) ($0.19/task)</text>
<polyline points="120.00,507.89 131.82,504.72 151.52,499.44 190.91,488.89 309.09,457.21 506.06,404.43 900.00,298.86" fill="none" stroke="#2563eb" stroke-width="3"/>
<circle cx="120.00" cy="507.89" r="4" fill="#2563eb"/>
<circle cx="131.82" cy="504.72" r="4" fill="#2563eb"/>
<circle cx="151.52" cy="499.44" r="4" fill="#2563eb"/>
<circle cx="190.91" cy="488.89" r="4" fill="#2563eb"/>
<circle cx="309.09" cy="457.21" r="4" fill="#2563eb"/>
<circle cx="506.06" cy="404.43" r="4" fill="#2563eb"/>
<circle cx="900.00" cy="298.86" r="4" fill="#2563eb"/>
<text x="910.00" y="302.86" font-family="Helvetica,Arial,sans-serif" font-size="12" fill="#2563eb">Typical days (median) ($0.42/task)</text>
<polyline points="120.00,506.30 131.82,500.74 151.52,491.48 190.91,472.96 309.09,417.41 506.06,324.81 900.00,139.63" fill="none" stroke="#dc2626" stroke-width="3"/>
<circle cx="120.00" cy="506.30" r="4" fill="#dc2626"/>
<circle cx="131.82" cy="500.74" r="4" fill="#dc2626"/>
<circle cx="151.52" cy="491.48" r="4" fill="#dc2626"/>
<circle cx="190.91" cy="472.96" r="4" fill="#dc2626"/>
<circle cx="309.09" cy="417.41" r="4" fill="#dc2626"/>
<circle cx="506.06" cy="324.81" r="4" fill="#dc2626"/>
<circle cx="900.00" cy="139.63" r="4" fill="#dc2626"/>
<text x="910.00" y="143.63" font-family="Helvetica,Arial,sans-serif" font-size="12" fill="#dc2626">Higher-cost days (90th percentile) ($0.73/task)</text>
<rect x="140" y="125" width="340" height="56" rx="8" fill="#ffffff" stroke="#cbd5e1"/>
<text x="154" y="148" font-family="Helvetica,Arial,sans-serif" font-size="14" fill="#0f172a">Example: 100 typical tasks ≈ $41.84</text>
<text x="154" y="168" font-family="Helvetica,Arial,sans-serif" font-size="13" fill="#475569">(using the median observed cost per task)</text>
<text x="30" y="585" font-family="Helvetica,Arial,sans-serif" font-size="14" fill="#334155">Interpretation: doubling task volume roughly doubles total spend.</text>
</svg>
