<svg xmlns="http://www.w3.org/2000/svg" width="980" height="640" viewBox="0 0 980 640">
<rect x="0" y="0" width="980" height="640" fill="#f8fafc"/>
<text x="30" y="42" font-family="Helvetica,Arial,sans-serif" font-size="26" font-weight="700" fill="#0f172a">What Makes Up The Cost Per Task</text>

<text x="30" y="70" font-family="Helvetica,Arial,sans-serif" font-size="15" fill="#334155">Blue = reading/context cost. Orange = model response cost. Green text shows average cache savings.</text>
<line x1="150" y1="500.00" x2="880" y2="500.00" stroke="#e2e8f0"/>
<text x="140" y="504.00" text-anchor="end" font-family="Helvetica,Arial,sans-serif" font-size="12" fill="#475569">$0.00</text>
<line x1="150" y1="422.00" x2="880" y2="422.00" stroke="#e2e8f0"/>
<text x="140" y="426.00" text-anchor="end" font-family="Helvetica,Arial,sans-serif" font-size="12" fill="#475569">$0.13</text>
<line x1="150" y1="344.00" x2="880" y2="344.00" stroke="#e2e8f0"/>
<text x="140" y="348.00" text-anchor="end" font-family="Helvetica,Arial,sans-serif" font-size="12" fill="#475569">$0.27</text>
<line x1="150" y1="266.00" x2="880" y2="266.00" stroke="#e2e8f0"/>
<text x="140" y="270.00" text-anchor="end" font-family="Helvetica,Arial,sans-serif" font-size="12" fill="#475569">$0.40</text>
<line x1="150" y1="188.00" x2="880" y2="188.00" stroke="#e2e8f0"/>
<text x="140" y="192.00" text-anchor="end" font-family="Helvetica,Arial,sans-serif" font-size="12" fill="#475569">$0.53</text>
<line x1="150" y1="110.00" x2="880" y2="110.00" stroke="#e2e8f0"/>
<text x="140" y="114.00" text-anchor="end" font-family="Helvetica,Arial,sans-serif" font-size="12" fill="#475569">$0.67</text>
<rect x="190" y="419.20" width="160" height="80.80" fill="#3b82f6" rx="6"/>
<rect x="190" y="385.94" width="160" height="33.25" fill="#f59e0b" rx="6"/>
<text x="270.0" y="376.94" text-anchor="middle" font-family="Helvetica,Arial,sans-serif" font-size="13" font-weight="700" fill="#0f172a">$0.19</text>
<text x="270.0" y="528" text-anchor="middle" font-family="Helvetica,Arial,sans-serif" font-size="13" fill="#0f172a">Yelp Search Task</text>
<text x="270.0" y="548" text-anchor="middle" font-family="Helvetica,Arial,sans-serif" font-size="12" fill="#16a34a">Avg cache savings: $0.01</text>
<rect x="425" y="236.08" width="160" height="263.92" fill="#3b82f6" rx="6"/>
<rect x="425" y="169.49" width="160" height="66.59" fill="#f59e0b" rx="6"/>
<text x="505.0" y="160.49" text-anchor="middle" font-family="Helvetica,Arial,sans-serif" font-size="13" font-weight="700" fill="#0f172a">$0.56</text>
<text x="505.0" y="528" text-anchor="middle" font-family="Helvetica,Arial,sans-serif" font-size="13" fill="#0f172a">Google Flights Task</text>
<text x="505.0" y="548" text-anchor="middle" font-family="Helvetica,Arial,sans-serif" font-size="12" fill="#16a34a">Avg cache savings: $0.05</text>
<rect x="660" y="327.64" width="160" height="172.36" fill="#3b82f6" rx="6"/>
<rect x="660" y="277.72" width="160" height="49.92" fill="#f59e0b" rx="6"/>
<text x="740.0" y="268.72" text-anchor="middle" font-family="Helvetica,Arial,sans-serif" font-size="13" font-weight="700" fill="#0f172a">$0.38</text>
<text x="740.0" y="528" text-anchor="middle" font-family="Helvetica,Arial,sans-serif" font-size="13" fill="#0f172a">All Tasks Combined</text>
<text x="740.0" y="548" text-anchor="middle" font-family="Helvetica,Arial,sans-serif" font-size="12" fill="#16a34a">Avg cache savings: $0.03</text>
<rect x="705" y="130" width="14" height="14" fill="#3b82f6"/><text x="726" y="142" font-family="Helvetica,Arial,sans-serif" font-size="12" fill="#0f172a">Prompt/context cost</text>
<rect x="705" y="152" width="14" height="14" fill="#f59e0b"/><text x="726" y="164" font-family="Helvetica,Arial,sans-serif" font-size="12" fill="#0f172a">Completion/response cost</text>
<text x="30" y="585" font-family="Helvetica,Arial,sans-serif" font-size="14" fill="#334155">Interpretation: prompt/context processing drives most of the per-task cost in these traces.</text>
</svg>
